<svg width="24" height="24" viewBox="0 0 24 24" fill="none" xmlns="http://www.w3.org/2000/svg">
<path d="M18.0001 6H8.2876C8.08869 6 7.89792 5.92098 7.75727 5.78033C7.61662 5.63968 7.5376 5.44891 7.5376 5.25C7.5376 5.05109 7.61662 4.86032 7.75727 4.71967C7.89792 4.57902 8.08869 4.5 8.2876 4.5H18.7501C18.949 4.5 19.1398 4.57902 19.2804 4.71967C19.4211 4.86032 19.5001 5.05109 19.5001 5.25V15.75C19.5001 15.9489 19.4211 16.1397 19.2804 16.2803C19.1398 16.421 18.949 16.5 18.7501 16.5C18.5512 16.5 18.3604 16.421 18.2198 16.2803C18.0791 16.1397 18.0001 15.9489 18.0001 15.75V6Z" fill="black"/>
<path d="M18.219 4.71897C18.3598 4.57814 18.5508 4.49902 18.75 4.49902C18.9491 4.49902 19.1401 4.57814 19.281 4.71897C19.4218 4.8598 19.5009 5.05081 19.5009 5.24997C19.5009 5.44913 19.4218 5.64014 19.281 5.78097L6.53097 18.531C6.46124 18.6007 6.37846 18.656 6.28735 18.6938C6.19624 18.7315 6.09859 18.7509 5.99997 18.7509C5.90135 18.7509 5.8037 18.7315 5.7126 18.6938C5.62149 18.656 5.5387 18.6007 5.46897 18.531C5.39924 18.4612 5.34392 18.3785 5.30619 18.2873C5.26845 18.1962 5.24902 18.0986 5.24902 18C5.24902 17.9014 5.26845 17.8037 5.30619 17.7126C5.34392 17.6215 5.39924 17.5387 5.46897 17.469L18.219 4.71897Z" fill="black"/>
</svg>
