<svg width="24" height="24" viewBox="0 0 24 24" fill="none" xmlns="http://www.w3.org/2000/svg">
<g clip-path="url(#clip0_1_227)">
<path fill-rule="evenodd" clip-rule="evenodd" d="M12.7069 15.707C12.5193 15.8944 12.265 15.9998 11.9999 15.9998C11.7347 15.9998 11.4804 15.8944 11.2929 15.707L5.63585 10.05C5.54034 9.95773 5.46416 9.84739 5.41175 9.72538C5.35934 9.60338 5.33176 9.47216 5.3306 9.33938C5.32945 9.2066 5.35475 9.07492 5.40503 8.95202C5.45531 8.82913 5.52957 8.71747 5.62346 8.62358C5.71735 8.52969 5.829 8.45544 5.9519 8.40515C6.0748 8.35487 6.20648 8.32957 6.33926 8.33073C6.47204 8.33188 6.60325 8.35947 6.72526 8.41188C6.84726 8.46428 6.95761 8.54047 7.04985 8.63598L11.9999 13.586L16.9499 8.63598C17.1385 8.45382 17.3911 8.35302 17.6533 8.3553C17.9155 8.35758 18.1663 8.46275 18.3517 8.64816C18.5371 8.83357 18.6423 9.08438 18.6445 9.34658C18.6468 9.60877 18.546 9.86137 18.3639 10.05L12.7069 15.707Z" fill="black"/>
</g>
<defs>
<clipPath id="clip0_1_227">
<rect width="24" height="24" fill="white"/>
</clipPath>
</defs>
</svg>
