<svg width="24" height="24" viewBox="0 0 24 24" fill="none" xmlns="http://www.w3.org/2000/svg">
<path d="M15.0961 5.90401C14.4946 5.29132 13.7776 4.80388 12.9866 4.46984C12.1956 4.1358 11.3463 3.96179 10.4877 3.95784C9.62911 3.9539 8.77823 4.1201 7.98421 4.44686C7.1902 4.77361 6.46879 5.25444 5.86166 5.86158C5.25452 6.46871 4.77369 7.19012 4.44694 7.98413C4.12018 8.77815 3.95398 9.62903 3.95792 10.4876C3.96187 11.3462 4.13588 12.1956 4.46992 12.9865C4.80396 13.7775 5.2914 14.4945 5.90409 15.096C7.12684 16.2965 8.77418 16.9656 10.4877 16.9577C12.2013 16.9498 13.8424 16.2656 15.054 15.054C16.2657 13.8423 16.9499 12.2012 16.9578 10.4876C16.9657 8.7741 16.2966 7.12676 15.0961 5.90401ZM4.49009 4.49001C6.02291 2.95757 8.08324 2.06858 10.2498 2.00484C12.4163 1.9411 14.5253 2.70741 16.1456 4.14708C17.7659 5.58675 18.7749 7.591 18.9665 9.74998C19.158 11.909 18.5176 14.0596 17.1761 15.762L22.5211 21.107L21.1071 22.521L15.7621 17.176C14.0591 18.5126 11.9103 19.149 9.75415 18.9556C7.59796 18.7622 5.5968 17.7534 4.15887 16.1351C2.72094 14.5168 1.95459 12.4109 2.01614 10.2469C2.07769 8.08294 2.9625 6.02397 4.49009 4.49001Z" fill="black"/>
</svg>
